<?xml version="1.0" encoding="UTF-8"?>
<svg xmlns="http://www.w3.org/2000/svg" viewBox="0 0 800 600" width="800" height="600">
  <!-- Background -->
  <defs>
    <linearGradient id="bg-gradient" x1="0%" y1="0%" x2="100%" y2="100%">
      <stop offset="0%" stop-color="#1E40AF" />
      <stop offset="100%" stop-color="#3B82F6" />
    </linearGradient>
    <filter id="shadow" x="-20%" y="-20%" width="140%" height="140%">
      <feGaussianBlur in="SourceAlpha" stdDeviation="10" />
      <feOffset dx="0" dy="10" result="offsetblur" />
      <feComponentTransfer>
        <feFuncA type="linear" slope="0.3" />
      </feComponentTransfer>
      <feMerge>
        <feMergeNode />
        <feMergeNode in="SourceGraphic" />
      </feMerge>
    </filter>
  </defs>

  <!-- Main Shield -->
  <g class="shield" filter="url(#shadow)">
    <path d="M400,100 L600,180 C600,350 550,450 400,500 C250,450 200,350 200,180 L400,100 Z" fill="url(#bg-gradient)" stroke="#1E3A8A" stroke-width="8" />
    
    <!-- Campus Building -->
    <g transform="translate(320, 220)">
      <rect x="0" y="0" width="160" height="120" fill="#FFFFFF" rx="5" />
      <rect x="20" y="20" width="30" height="40" fill="#3B82F6" rx="2" />
      <rect x="70" y="20" width="30" height="40" fill="#3B82F6" rx="2" />
      <rect x="120" y="20" width="20" height="100" fill="#3B82F6" rx="2" />
      <rect x="20" y="80" width="80" height="20" fill="#3B82F6" rx="2" />
      <path d="M0,0 L80,0 L40,-30 Z" fill="#FFFFFF" transform="translate(40, 0)" />
    </g>
    
    <!-- Notification Icons -->
    <g class="notification-icons">
      <circle cx="320" cy="200" r="15" fill="#EF4444" />
      <circle cx="480" cy="200" r="15" fill="#F59E0B" />
      <circle cx="400" cy="350" r="15" fill="#10B981" />
      
      <!-- Alert Symbol -->
      <text x="320" y="205" font-family="Arial" font-size="20" fill="white" text-anchor="middle">!</text>
      
      <!-- Warning Symbol -->
      <text x="480" y="205" font-family="Arial" font-size="20" fill="white" text-anchor="middle">⚠</text>
      
      <!-- Check Symbol -->
      <text x="400" y="355" font-family="Arial" font-size="20" fill="white" text-anchor="middle">✓</text>
    </g>
  </g>
  
  <!-- Pulse Animation -->
  <circle cx="400" cy="300" r="180" fill="none" stroke="#FFFFFF" stroke-width="3" opacity="0.3">
    <animate attributeName="r" from="180" to="220" dur="2s" repeatCount="indefinite" />
    <animate attributeName="opacity" from="0.3" to="0" dur="2s" repeatCount="indefinite" />
  </circle>
  
  <circle cx="400" cy="300" r="150" fill="none" stroke="#FFFFFF" stroke-width="3" opacity="0.3">
    <animate attributeName="r" from="150" to="190" dur="2s" begin="0.5s" repeatCount="indefinite" />
    <animate attributeName="opacity" from="0.3" to="0" dur="2s" begin="0.5s" repeatCount="indefinite" />
  </circle>
  
  <!-- Mobile Device -->
  <g transform="translate(150, 350) rotate(-15)">
    <rect x="0" y="0" width="70" height="120" rx="10" fill="#1F2937" stroke="#FFFFFF" stroke-width="2" />
    <rect x="5" y="10" width="60" height="100" rx="2" fill="#60A5FA" />
    <circle cx="35" cy="115" r="5" fill="#FFFFFF" />
  </g>
  
  <!-- Location Pin -->
  <g transform="translate(600, 320)">
    <path d="M0,0 C0,-30 40,-30 40,0 C40,20 20,40 20,40 C20,40 0,20 0,0 Z" fill="#EF4444" />
    <circle cx="20" cy="15" r="8" fill="#FFFFFF" />
  </g>
</svg>