<?xml version="1.0" encoding="UTF-8"?>
<svg xmlns="http://www.w3.org/2000/svg" viewBox="0 0 800 300" width="800" height="300">
  <defs>
    <filter id="shadow" x="-10%" y="-10%" width="120%" height="120%">
      <feGaussianBlur in="SourceAlpha" stdDeviation="3" />
      <feOffset dx="0" dy="4" result="offsetblur" />
      <feComponentTransfer>
        <feFuncA type="linear" slope="0.3" />
      </feComponentTransfer>
      <feMerge>
        <feMergeNode />
        <feMergeNode in="SourceGraphic" />
      </feMerge>
    </filter>
  </defs>
  
  <!-- Step 1: Report -->
  <g transform="translate(100, 150)" filter="url(#shadow)">
    <circle cx="0" cy="0" r="60" fill="#3B82F6" />
    <g fill="white">
      <rect x="-20" y="-25" width="40" height="50" rx="5" />
      <rect x="-15" y="-20" width="30" height="5" rx="2" />
      <rect x="-15" y="-10" width="30" height="5" rx="2" />
      <rect x="-15" y="0" width="20" height="5" rx="2" />
      <rect x="-15" y="10" width="30" height="5" rx="2" />
      <circle cx="0" cy="-40" r="10" fill="#EF4444" />
      <text x="0" y="-36" font-family="Arial" font-size="14" font-weight="bold" text-anchor="middle">!</text>
    </g>
    <text x="0" y="90" font-family="Arial" font-size="16" font-weight="bold" fill="#3B82F6" text-anchor="middle">Report Incident</text>
    <text x="0" y="110" font-family="Arial" font-size="12" fill="#93C5FD" text-anchor="middle" width="120">Submit details in seconds</text>
  </g>
  
  <!-- Arrow 1 -->
  <g transform="translate(200, 150)">
    <line x1="0" y1="0" x2="100" y2="0" stroke="#D1D5DB" stroke-width="3" stroke-dasharray="5,5" />
    <polygon points="100,0 90,-5 90,5" fill="#D1D5DB" />
    <animateTransform attributeName="transform" type="translate" from="200,150" to="220,150" dur="1s" repeatCount="indefinite" additive="sum" />
  </g>
  
  <!-- Step 2: Process -->
  <g transform="translate(400, 150)" filter="url(#shadow)">
    <circle cx="0" cy="0" r="60" fill="#10B981" />
    <g fill="white">
      <path d="M-20,-20 L20,-20 L20,20 L-20,20 Z" stroke="white" stroke-width="2" fill="none" />
      <line x1="-10" y1="0" x2="0" y2="10" stroke="white" stroke-width="3" />
      <line x1="0" y1="10" x2="15" y2="-10" stroke="white" stroke-width="3" />
    </g>
    <text x="0" y="90" font-family="Arial" font-size="16" font-weight="bold" fill="#10B981" text-anchor="middle">Immediate Response</text>
    <text x="0" y="110" font-family="Arial" font-size="12" fill="#6EE7B7" text-anchor="middle">Security team alerted</text>
  </g>
  
  <!-- Arrow 2 -->
  <g transform="translate(500, 150)">
    <line x1="0" y1="0" x2="100" y2="0" stroke="#D1D5DB" stroke-width="3" stroke-dasharray="5,5" />
    <polygon points="100,0 90,-5 90,5" fill="#D1D5DB" />
    <animateTransform attributeName="transform" type="translate" from="500,150" to="520,150" dur="1s" repeatCount="indefinite" additive="sum" />
  </g>
  
  <!-- Step 3: Resolve -->
  <g transform="translate(700, 150)" filter="url(#shadow)">
    <circle cx="0" cy="0" r="60" fill="#F59E0B" />
    <g fill="white">
      <path d="M-15,-15 C-15,-15 -15,15 15,15 C15,15 15,-15 -15,-15 Z" stroke="white" stroke-width="2" fill="none" />
      <circle cx="0" cy="0" r="5" fill="white" />
      <circle cx="-10" cy="-10" r="3" fill="white" />
      <circle cx="10" cy="-10" r="3" fill="white" />
      <circle cx="10" cy="10" r="3" fill="white" />
      <circle cx="-10" cy="10" r="3" fill="white" />
    </g>
    <text x="0" y="90" font-family="Arial" font-size="16" font-weight="bold" fill="#F59E0B" text-anchor="middle">Resolution</text>
    <text x="0" y="110" font-family="Arial" font-size="12" fill="#FCD34D" text-anchor="middle">Track status in real-time</text>
  </g>
  
  <!-- Connecting Lines -->
  <path d="M100,90 C250,30 550,30 700,90" stroke="#E5E7EB" stroke-width="2" fill="none" stroke-dasharray="5,5" />
  
  <!-- Animated Dot -->
  <circle cx="100" cy="90" r="8" fill="#3B82F6">
    <animate attributeName="cx" values="100;400;700;100" dur="6s" repeatCount="indefinite" />
    <animate attributeName="cy" values="90;30;90;90" dur="6s" repeatCount="indefinite" />
    <animate attributeName="fill" values="#3B82F6;#10B981;#F59E0B;#3B82F6" dur="6s" repeatCount="indefinite" />
  </circle>
</svg>